<?xml version="1.0" standalone="no"?>
<!DOCTYPE svg PUBLIC "-//W3C//DTD SVG 20010904//EN"
 "http://www.w3.org/TR/2001/REC-SVG-20010904/DTD/svg10.dtd">
<svg version="1.0" xmlns="http://www.w3.org/2000/svg"
 width="38.000000pt" height="30.000000pt" viewBox="0 0 38.000000 30.000000"
 preserveAspectRatio="xMidYMid meet">

<g transform="translate(0.000000,30.000000) scale(0.100000,-0.100000)"
fill="#000000" stroke="none">
<path d="M0 150 l0 -150 190 0 190 0 0 127 c0 69 -3 123 -6 120 -4 -3 -16 -2
-27 4 -15 8 -18 8 -12 -1 5 -8 3 -11 -6 -8 -8 3 -20 -2 -27 -11 -9 -10 -11
-11 -6 -2 5 11 3 13 -9 8 -10 -4 -30 -4 -45 -1 -24 5 -28 10 -27 35 2 26 -2
29 -27 29 -31 0 -34 -6 -14 -32 10 -14 15 -15 26 -5 10 9 11 9 6 -1 -13 -23
-77 -42 -132 -39 -30 1 -54 6 -54 10 0 5 4 6 9 2 5 -3 12 -1 16 4 3 5 -3 14
-12 20 -20 11 -18 12 47 30 33 9 32 9 -22 10 l-58 1 0 -150z m332 68 c-7 -7
-13 -35 -14 -62 l-1 -51 -7 45 c-4 25 -8 36 -9 25 -1 -11 -8 -28 -15 -38 -12
-15 -14 -15 -19 -2 -4 8 -1 14 6 12 6 -1 13 9 15 22 2 13 14 32 25 42 25 21
37 25 19 7z m-99 -68 c-3 -12 -8 -19 -11 -16 -5 6 5 36 12 36 2 0 2 -9 -1 -20z"/>
<path d="M280 290 c88 -19 100 -20 100 -5 0 12 -14 15 -67 14 -57 -1 -62 -2
-33 -9z"/>
</g>
</svg>
