<svg xmlns="http://www.w3.org/2000/svg" width="96.838" height="40.264" viewBox="0 0 25.622 10.653"><path d="M10.653 5.327a5.327 5.327 0 0 1-5.326 5.326A5.327 5.327 0 0 1 0 5.327 5.327 5.327 0 0 1 5.327 0a5.327 5.327 0 0 1 5.326 5.327z" fill="#0c9"/><g style="line-height:1.25"><path d="M14.14 2.878l1.158 3.576 1.152-3.576h1.22V7.81h-.932V6.461l.092-2.326-1.217 3.674h-.637l-1.214-3.67.093 2.322V7.81h-.93V2.88zm7.06 2.794h-1.784v1.32h2.093v.817h-3.022V2.88h3.016v.82h-2.087v1.175H21.2zm4.422 1.514q-.251.328-.71.511-.458.18-1.015.18-.585 0-1.028-.278-.44-.281-.681-.813-.239-.531-.245-1.25v-.335q0-.738.226-1.276.23-.542.656-.827.43-.287 1.007-.287.802 0 1.254.42.452.416.536 1.215h-.905q-.062-.423-.275-.62-.21-.196-.582-.196-.474 0-.722.39-.248.389-.25 1.158v.315q0 .775.269 1.171.27.397.79.397.523 0 .746-.244v-.85h-.846v-.749h1.775z" style="-inkscape-font-specification:'Roboto Bold'" aria-label="MEG" font-weight="700" font-size="6.632" font-family="Roboto" letter-spacing="0" word-spacing="0"/></g><g style="line-height:1.25"><path d="M4.168 2.861l1.159 3.576 1.152-3.576h1.22v4.931h-.933V6.444l.093-2.326-1.217 3.674h-.637L3.79 4.121l.093 2.323v1.348h-.93v-4.93z" style="-inkscape-font-specification:'Roboto Bold'" font-weight="700" font-family="Roboto" fill="#fff" aria-label="M" font-size="6.632" letter-spacing="0" word-spacing="0"/></g></svg>